ffmpeg version git-2026-04-19-de18feb Copyright (c) 2000-2026 the FFmpeg developers
  built with gcc 9 (Ubuntu 9.4.0-1ubuntu1~20.04.2)
  configuration: --enable-shared --enable-gpl --enable-libx264
  libavutil      60. 30.100 / 60. 30.100
  libavcodec     62. 30.100 / 62. 30.100
  libavformat    62. 13.102 / 62. 13.102
  libavdevice    62.  4.100 / 62.  4.100
  libavfilter    11. 15.101 / 11. 15.101
  libswscale      9.  7.100 /  9.  7.100
  libswresample   6.  4.100 /  6.  4.100
[in#0/x11grab @ 0x556b95e23c40] Stream #0: not enough frames to estimate rate; consider increasing probesize
Input #0, x11grab, from ':0.0+0,0':
  Duration: N/A, start: 1777365107.193351, bitrate: 3678192 kb/s
  Stream #0:0: Video: rawvideo (BGR[0] / 0x524742), bgr0, 2870x1602, 3678192 kb/s, 25 fps, 1000k tbr, 1000k tbn, start 1777365107.193351
Stream mapping:
  Stream #0:0 -> #0:0 (rawvideo (native) -> h264 (libx264))
[libx264 @ 0x556b95e31f00] using cpu capabilities: MMX2 SSE2Fast SSSE3 SSE4.2 AVX FMA3 BMI2 AVX2
[libx264 @ 0x556b95e31f00] profile High, level 5.0
[libx264 @ 0x556b95e31f00] 264 - core 155 r2917 0a84d98 - H.264/MPEG-4 AVC codec - Copyleft 2003-2018 - http://www.videolan.org/x264.html - options: cabac=1 ref=1 deblock=1:0:0 analyse=0x3:0x113 me=hex subme=2 psy=1 psy_rd=1.00:0.00 mixed_ref=0 me_range=16 chroma_me=1 trellis=0 8x8dct=1 cqm=0 deadzone=21,11 fast_pskip=1 chroma_qp_offset=0 threads=6 lookahead_threads=2 sliced_threads=0 nr=0 decimate=1 interlaced=0 bluray_compat=0 constrained_intra=0 bframes=3 b_pyramid=2 b_adapt=1 b_bias=0 direct=1 weightb=1 open_gop=0 weightp=1 keyint=250 keyint_min=25 scenecut=40 intra_refresh=0 rc_lookahead=10 rc=crf mbtree=1 crf=23.0 qcomp=0.60 qpmin=0 qpmax=69 qpstep=4 ip_ratio=1.40 aq=1:1.00
Output #0, matroska, to '/home/lmy/catkin_ws/recordings_tmp/exp_30_segment_fix2/screen.mkv':
  Metadata:
    encoder         : Lavf62.13.102
  Stream #0:0: Video: h264 (H264 / 0x34363248), yuv420p(tv, progressive), 2870x1602, q=2-31, 25 fps, 1k tbn
    Metadata:
      encoder         : Lavc62.30.100 libx264
    Side data:
      CPB properties: bitrate max/min/avg: 0/0/0 buffer size: 0 vbv_delay: N/A
frame=    0 fps=0.0 q=0.0 size=       0KiB time=N/A bitrate=N/A speed=N/A elapsed=0:00:00.50    frame=    6 fps=6.0 q=28.0 size=       1KiB time=00:00:00.20 bitrate=  23.8kbits/s speed= 0.2x elapsed=0:00:01.00    frame=   18 fps= 12 q=28.0 size=       1KiB time=00:00:00.64 bitrate=   7.4kbits/s speed=0.426x elapsed=0:00:01.50    frame=   31 fps= 15 q=28.0 size=       1KiB time=00:00:01.16 bitrate=   4.1kbits/s speed=0.58x elapsed=0:00:02.00    frame=   43 fps= 17 q=28.0 size=       1KiB time=00:00:01.64 bitrate=   2.9kbits/s speed=0.655x elapsed=0:00:02.50    frame=   56 fps= 19 q=28.0 size=       1KiB time=00:00:02.16 bitrate=   2.2kbits/s speed=0.719x elapsed=0:00:03.00    frame=   68 fps= 19 q=28.0 size=       1KiB time=00:00:02.64 bitrate=   1.8kbits/s speed=0.754x elapsed=0:00:03.50    frame=   81 fps= 20 q=28.0 size=       1KiB time=00:00:03.16 bitrate=   1.5kbits/s speed=0.789x elapsed=0:00:04.00    frame=   93 fps= 21 q=28.0 size=       1KiB time=00:00:03.68 bitrate=   1.3kbits/s speed=0.817x elapsed=0:00:04.50    frame=  106 fps= 21 q=28.0 size=       1KiB time=00:00:04.16 bitrate=   1.1kbits/s speed=0.831x elapsed=0:00:05.00    frame=  118 fps= 21 q=28.0 size=       1KiB time=00:00:04.64 bitrate=   1.0kbits/s speed=0.843x elapsed=0:00:05.50    frame=  131 fps= 22 q=28.0 size=     228KiB time=00:00:05.16 bitrate= 361.7kbits/s speed=0.859x elapsed=0:00:06.00    frame=  143 fps= 22 q=28.0 size=     228KiB time=00:00:05.68 bitrate= 328.5kbits/s speed=0.873x elapsed=0:00:06.50    frame=  156 fps= 22 q=28.0 size=     228KiB time=00:00:06.16 bitrate= 302.9kbits/s speed=0.879x elapsed=0:00:07.00    frame=  168 fps= 22 q=28.0 size=     228KiB time=00:00:06.68 bitrate= 279.4kbits/s speed=0.89x elapsed=0:00:07.50    frame=  181 fps= 23 q=28.0 size=     228KiB time=00:00:07.20 bitrate= 259.2kbits/s speed=0.899x elapsed=0:00:08.00    frame=  193 fps= 23 q=28.0 size=     228KiB time=00:00:07.64 bitrate= 244.3kbits/s speed=0.898x elapsed=0:00:08.50    frame=  206 fps= 23 q=28.0 size=     228KiB time=00:00:08.16 bitrate= 228.7kbits/s speed=0.906x elapsed=0:00:09.00    frame=  219 fps= 23 q=28.0 size=     228KiB time=00:00:08.68 bitrate= 215.0kbits/s speed=0.913x elapsed=0:00:09.50    frame=  231 fps= 23 q=28.0 size=     228KiB time=00:00:09.16 bitrate= 203.7kbits/s speed=0.915x elapsed=0:00:10.00    frame=  243 fps= 23 q=28.0 size=     228KiB time=00:00:09.64 bitrate= 193.6kbits/s speed=0.917x elapsed=0:00:10.50    frame=  256 fps= 23 q=28.0 size=     256KiB time=00:00:10.16 bitrate= 206.4kbits/s speed=0.923x elapsed=0:00:11.00    frame=  269 fps= 23 q=28.0 size=     256KiB time=00:00:10.68 bitrate= 196.4kbits/s speed=0.928x elapsed=0:00:11.51    frame=  281 fps= 23 q=28.0 size=     256KiB time=00:00:11.16 bitrate= 187.9kbits/s speed=0.929x elapsed=0:00:12.01    frame=  294 fps= 23 q=28.0 size=     256KiB time=00:00:11.72 bitrate= 178.9kbits/s speed=0.936x elapsed=0:00:12.51    frame=  306 fps= 24 q=28.0 size=     256KiB time=00:00:12.16 bitrate= 172.5kbits/s speed=0.934x elapsed=0:00:13.01    frame=  319 fps= 24 q=28.0 size=     256KiB time=00:00:12.72 bitrate= 164.9kbits/s speed=0.941x elapsed=0:00:13.51    frame=  331 fps= 24 q=28.0 size=     256KiB time=00:00:13.16 bitrate= 159.4kbits/s speed=0.939x elapsed=0:00:14.01    frame=  344 fps= 24 q=28.0 size=     256KiB time=00:00:13.68 bitrate= 153.3kbits/s speed=0.942x elapsed=0:00:14.51    frame=  356 fps= 24 q=28.0 size=     256KiB time=00:00:14.16 bitrate= 148.1kbits/s speed=0.943x elapsed=0:00:15.01    frame=  369 fps= 24 q=28.0 size=     256KiB time=00:00:14.72 bitrate= 142.5kbits/s speed=0.949x elapsed=0:00:15.51    frame=  381 fps= 24 q=28.0 size=     512KiB time=00:00:15.20 bitrate= 275.9kbits/s speed=0.949x elapsed=0:00:16.01    frame=  394 fps= 24 q=28.0 size=     512KiB time=00:00:15.68 bitrate= 267.5kbits/s speed=0.949x elapsed=0:00:16.51    frame=  406 fps= 24 q=28.0 size=     512KiB time=00:00:16.16 bitrate= 259.5kbits/s speed=0.949x elapsed=0:00:17.02    frame=  419 fps= 24 q=28.0 size=     512KiB time=00:00:16.72 bitrate= 250.9kbits/s speed=0.954x elapsed=0:00:17.52    frame=  431 fps= 24 q=28.0 size=     512KiB time=00:00:17.20 bitrate= 243.9kbits/s speed=0.954x elapsed=0:00:18.02    frame=  444 fps= 24 q=28.0 size=     512KiB time=00:00:17.68 bitrate= 237.2kbits/s speed=0.955x elapsed=0:00:18.52    frame=  456 fps= 24 q=28.0 size=     512KiB time=00:00:18.20 bitrate= 230.5kbits/s speed=0.957x elapsed=0:00:19.02    frame=  469 fps= 24 q=28.0 size=     512KiB time=00:00:18.68 bitrate= 224.5kbits/s speed=0.957x elapsed=0:00:19.52    frame=  482 fps= 24 q=28.0 size=     512KiB time=00:00:19.24 bitrate= 218.0kbits/s speed=0.961x elapsed=0:00:20.02    frame=  494 fps= 24 q=28.0 size=     512KiB time=00:00:19.72 bitrate= 212.7kbits/s speed=0.961x elapsed=0:00:20.52    frame=  506 fps= 24 q=28.0 size=     512KiB time=00:00:20.16 bitrate= 208.1kbits/s speed=0.959x elapsed=0:00:21.02    frame=  519 fps= 24 q=28.0 size=     512KiB time=00:00:20.68 bitrate= 202.8kbits/s speed=0.961x elapsed=0:00:21.52    frame=  531 fps= 24 q=28.0 size=     512KiB time=00:00:21.16 bitrate= 198.2kbits/s speed=0.961x elapsed=0:00:22.02    frame=  544 fps= 24 q=28.0 size=     512KiB time=00:00:21.72 bitrate= 193.1kbits/s speed=0.964x elapsed=0:00:22.52    frame=  556 fps= 24 q=28.0 size=     512KiB time=00:00:22.16 bitrate= 189.3kbits/s speed=0.962x elapsed=0:00:23.02    frame=  569 fps= 24 q=28.0 size=     512KiB time=00:00:22.68 bitrate= 184.9kbits/s speed=0.964x elapsed=0:00:23.52    frame=  581 fps= 24 q=28.0 size=     512KiB time=00:00:23.20 bitrate= 180.8kbits/s speed=0.966x elapsed=0:00:24.02    frame=  594 fps= 24 q=28.0 size=     512KiB time=00:00:23.68 bitrate= 177.1kbits/s speed=0.965x elapsed=0:00:24.52    frame=  607 fps= 24 q=28.0 size=     512KiB time=00:00:24.20 bitrate= 173.3kbits/s speed=0.967x elapsed=0:00:25.02    frame=  619 fps= 24 q=28.0 size=     512KiB time=00:00:24.68 bitrate= 169.9kbits/s speed=0.967x elapsed=0:00:25.52    frame=  632 fps= 24 q=28.0 size=    1280KiB time=00:00:25.20 bitrate= 416.1kbits/s speed=0.968x elapsed=0:00:26.02    frame=  644 fps= 24 q=28.0 size=    1280KiB time=00:00:25.72 bitrate= 407.7kbits/s speed=0.969x elapsed=0:00:26.52    frame=  657 fps= 24 q=28.0 size=    1280KiB time=00:00:26.20 bitrate= 400.2kbits/s speed=0.969x elapsed=0:00:27.02    frame=  669 fps= 24 q=28.0 size=    1280KiB time=00:00:26.72 bitrate= 392.4kbits/s speed=0.971x elapsed=0:00:27.53    frame=  681 fps= 24 q=28.0 size=    1280KiB time=00:00:27.16 bitrate= 386.1kbits/s speed=0.969x elapsed=0:00:28.03    frame=  694 fps= 24 q=28.0 size=    1280KiB time=00:00:27.68 bitrate= 378.8kbits/s speed=0.97x elapsed=0:00:28.53    frame=  706 fps= 24 q=28.0 size=    1280KiB time=00:00:28.16 bitrate= 372.4kbits/s speed=0.97x elapsed=0:00:29.03    frame=  719 fps= 24 q=28.0 size=    1280KiB time=00:00:28.68 bitrate= 365.6kbits/s speed=0.971x elapsed=0:00:29.53    frame=  731 fps= 24 q=28.0 size=    1280KiB time=00:00:29.20 bitrate= 359.1kbits/s speed=0.972x elapsed=0:00:30.03    frame=  744 fps= 24 q=28.0 size=    1280KiB time=00:00:29.68 bitrate= 353.3kbits/s speed=0.972x elapsed=0:00:30.53    frame=  757 fps= 24 q=28.0 size=    1280KiB time=00:00:30.24 bitrate= 346.8kbits/s speed=0.974x elapsed=0:00:31.03    frame=  769 fps= 24 q=28.0 size=    1280KiB time=00:00:30.68 bitrate= 341.8kbits/s speed=0.973x elapsed=0:00:31.53    frame=  782 fps= 24 q=28.0 size=    1280KiB time=00:00:31.20 bitrate= 336.1kbits/s speed=0.974x elapsed=0:00:32.03    frame=  794 fps= 24 q=28.0 size=    1280KiB time=00:00:31.68 bitrate= 331.0kbits/s speed=0.974x elapsed=0:00:32.53    frame=  807 fps= 24 q=28.0 size=    1280KiB time=00:00:32.20 bitrate= 325.6kbits/s speed=0.975x elapsed=0:00:33.03    frame=  819 fps= 24 q=28.0 size=    1280KiB time=00:00:32.68 bitrate= 320.9kbits/s speed=0.975x elapsed=0:00:33.53    frame=  832 fps= 24 q=28.0 size=    1280KiB time=00:00:33.20 bitrate= 315.8kbits/s speed=0.975x elapsed=0:00:34.03    frame=  844 fps= 24 q=28.0 size=    1280KiB time=00:00:33.72 bitrate= 311.0kbits/s speed=0.976x elapsed=0:00:34.54    frame=  857 fps= 24 q=28.0 size=    1280KiB time=00:00:34.20 bitrate= 306.6kbits/s speed=0.976x elapsed=0:00:35.04    frame=  869 fps= 24 q=28.0 size=    1280KiB time=00:00:34.76 bitrate= 301.7kbits/s speed=0.978x elapsed=0:00:35.54    frame=  882 fps= 24 q=28.0 size=    1536KiB time=00:00:35.24 bitrate= 357.1kbits/s speed=0.978x elapsed=0:00:36.04    frame=  894 fps= 24 q=28.0 size=    1536KiB time=00:00:35.68 bitrate= 352.7kbits/s speed=0.976x elapsed=0:00:36.54    frame=  907 fps= 24 q=28.0 size=    1536KiB time=00:00:36.20 bitrate= 347.6kbits/s speed=0.977x elapsed=0:00:37.04    frame=  919 fps= 24 q=28.0 size=    1536KiB time=00:00:36.68 bitrate= 343.0kbits/s speed=0.977x elapsed=0:00:37.54    frame=  932 fps= 24 q=28.0 size=    1536KiB time=00:00:37.20 bitrate= 338.3kbits/s speed=0.978x elapsed=0:00:38.04    frame=  945 fps= 25 q=28.0 size=    1536KiB time=00:00:37.76 bitrate= 333.2kbits/s speed=0.98x elapsed=0:00:38.54    frame=  957 fps= 25 q=28.0 size=    1536KiB time=00:00:38.24 bitrate= 329.1kbits/s speed=0.979x elapsed=0:00:39.04    frame=  970 fps= 25 q=28.0 size=    1536KiB time=00:00:38.76 bitrate= 324.6kbits/s speed=0.98x elapsed=0:00:39.54    frame=  982 fps= 25 q=28.0 size=    1536KiB time=00:00:39.24 bitrate= 320.7kbits/s speed=0.98x elapsed=0:00:40.04    frame=  995 fps= 25 q=28.0 size=    1536KiB time=00:00:39.72 bitrate= 316.8kbits/s speed=0.979x elapsed=0:00:40.55    frame= 1007 fps= 25 q=28.0 size=    1536KiB time=00:00:40.20 bitrate= 313.0kbits/s speed=0.979x elapsed=0:00:41.05    frame= 1020 fps= 25 q=28.0 size=    1536KiB time=00:00:40.76 bitrate= 308.7kbits/s speed=0.981x elapsed=0:00:41.55    frame= 1032 fps= 25 q=28.0 size=    1536KiB time=00:00:41.20 bitrate= 305.4kbits/s speed=0.98x elapsed=0:00:42.05    frame= 1045 fps= 25 q=28.0 size=    1536KiB time=00:00:41.72 bitrate= 301.6kbits/s speed=0.98x elapsed=0:00:42.55    frame= 1057 fps= 25 q=28.0 size=    1536KiB time=00:00:42.20 bitrate= 298.2kbits/s speed=0.98x elapsed=0:00:43.05    frame= 1070 fps= 25 q=28.0 size=    1536KiB time=00:00:42.72 bitrate= 294.5kbits/s speed=0.981x elapsed=0:00:43.55    frame= 1082 fps= 25 q=28.0 size=    1536KiB time=00:00:43.20 bitrate= 291.3kbits/s speed=0.98x elapsed=0:00:44.05    frame= 1095 fps= 25 q=28.0 size=    1536KiB time=00:00:43.72 bitrate= 287.8kbits/s speed=0.981x elapsed=0:00:44.55    frame= 1107 fps= 25 q=28.0 size=    1536KiB time=00:00:44.20 bitrate= 284.7kbits/s speed=0.981x elapsed=0:00:45.05    frame= 1120 fps= 25 q=28.0 size=    1792KiB time=00:00:44.72 bitrate= 328.3kbits/s speed=0.982x elapsed=0:00:45.56    frame= 1132 fps= 25 q=28.0 size=    1792KiB time=00:00:45.20 bitrate= 324.8kbits/s speed=0.981x elapsed=0:00:46.06    frame= 1145 fps= 25 q=28.0 size=    1792KiB time=00:00:45.72 bitrate= 321.1kbits/s speed=0.982x elapsed=0:00:46.56    frame= 1157 fps= 25 q=28.0 size=    1792KiB time=00:00:46.20 bitrate= 317.8kbits/s speed=0.982x elapsed=0:00:47.06    frame= 1170 fps= 25 q=28.0 size=    1792KiB time=00:00:46.72 bitrate= 314.2kbits/s speed=0.982x elapsed=0:00:47.56    frame= 1182 fps= 25 q=28.0 size=    1792KiB time=00:00:47.20 bitrate= 311.0kbits/s speed=0.982x elapsed=0:00:48.06    frame= 1195 fps= 25 q=28.0 size=    1792KiB time=00:00:47.72 bitrate= 307.6kbits/s speed=0.983x elapsed=0:00:48.56    frame= 1207 fps= 25 q=28.0 size=    1792KiB time=00:00:48.20 bitrate= 304.6kbits/s speed=0.982x elapsed=0:00:49.06    [vost#0:0/libx264 @ 0x556b95e312c0] Error submitting a packet to the muxer: Immediate exit requested
    Last message repeated 1 times
[out#0/matroska @ 0x556b95e30500] Error muxing a packet
[out#0/matroska @ 0x556b95e30500] Task finished with error code: -1414092869 (Immediate exit requested)
[out#0/matroska @ 0x556b95e30500] Terminating thread with return code -1414092869 (Immediate exit requested)
[out#0/matroska @ 0x556b95e30500] Error writing trailer: Immediate exit requested
[out#0/matroska @ 0x556b95e30500] Error closing file: Immediate exit requested
[out#0/matroska @ 0x556b95e30500] video:2869KiB audio:0KiB subtitle:0KiB other streams:0KiB global headers:0KiB muxing overhead: unknown
frame= 1233 fps= 25 q=-1.0 Lsize=    1792KiB time=00:00:49.24 bitrate= 298.1kbits/s speed=0.992x elapsed=0:00:49.61    
[libx264 @ 0x556b95e31f00] frame I:6     Avg QP:11.79  size:196427
[libx264 @ 0x556b95e31f00] frame P:315   Avg QP:16.55  size:  4297
[libx264 @ 0x556b95e31f00] frame B:919   Avg QP:20.67  size:   490
[libx264 @ 0x556b95e31f00] consecutive B-frames:  1.0%  0.2%  0.7% 98.1%
[libx264 @ 0x556b95e31f00] mb I  I16..4: 81.2%  1.6% 17.2%
[libx264 @ 0x556b95e31f00] mb P  I16..4:  1.0%  0.1%  0.1%  P16..4:  0.5%  0.2%  0.2%  0.0%  0.0%    skip:97.8%
[libx264 @ 0x556b95e31f00] mb B  I16..4:  0.1%  0.0%  0.0%  B16..8:  0.3%  0.1%  0.0%  direct: 0.1%  skip:99.4%  L0:43.3% L1:51.1% BI: 5.6%
[libx264 @ 0x556b95e31f00] 8x8 transform intra:3.2% inter:2.7%
[libx264 @ 0x556b95e31f00] coded y,uvDC,uvAC intra: 16.5% 29.4% 25.8% inter: 0.1% 0.2% 0.1%
[libx264 @ 0x556b95e31f00] i16 v,h,dc,p: 70% 27%  2%  0%
[libx264 @ 0x556b95e31f00] i8 v,h,dc,ddl,ddr,vr,hd,vl,hu: 10% 18% 65%  1%  1%  0%  3%  0%  2%
[libx264 @ 0x556b95e31f00] i4 v,h,dc,ddl,ddr,vr,hd,vl,hu: 27% 35% 20%  2%  3%  2%  6%  2%  4%
[libx264 @ 0x556b95e31f00] i8c dc,h,v,p: 61% 31%  7%  1%
[libx264 @ 0x556b95e31f00] Weighted P-Frames: Y:0.0% UV:0.0%
[libx264 @ 0x556b95e31f00] kb/s:480.66
Exiting normally, received signal 2.
